<svg xmlns="http://www.w3.org/2000/svg" width="500" height="350" viewBox="0 0 500 350"><rect width="100%" height="100%" fill="#24305E"/><path fill="#FFFFFF" d="M113.8 188.25H124q2.82 0 4.73-.67t3.05-1.8q1.15-1.12 1.65-2.62.51-1.5.51-3.19 0-1.77-.56-3.17-.57-1.41-1.76-2.4-1.2-.99-3.1-1.52-1.89-.52-4.56-.52H113.8zm8.59-38.54h-8.59v15.67h8.03q5.17 0 7.82-1.88 2.64-1.87 2.64-5.96 0-4.23-2.4-6.04-2.4-1.79-7.5-1.79m-18.68-7.81h18.68q5.32 0 9.11 1.02 3.79 1.01 6.21 2.89 2.42 1.87 3.54 4.53 1.13 2.66 1.13 6 0 1.91-.57 3.66-.56 1.74-1.74 3.26t-3 2.76q-1.82 1.23-4.33 2.1 11.18 2.51 11.18 12.07 0 3.45-1.32 6.38-1.31 2.92-3.82 5.04t-6.19 3.32q-3.67 1.2-8.4 1.2h-20.48zm64.95 15.16q4.28 0 7.79 1.38 3.5 1.39 6 3.94 2.49 2.55 3.84 6.23 1.35 3.67 1.35 8.21 0 4.57-1.35 8.25-1.35 3.67-3.84 6.26-2.5 2.59-6 3.98-3.51 1.38-7.79 1.38-4.31 0-7.83-1.38-3.53-1.39-6.02-3.98-2.5-2.59-3.86-6.26-1.37-3.68-1.37-8.25 0-4.54 1.37-8.21 1.36-3.68 3.86-6.23 2.49-2.55 6.02-3.94 3.52-1.38 7.83-1.38m0 32.51q4.8 0 7.11-3.23 2.31-3.22 2.31-9.45 0-6.22-2.31-9.48-2.31-3.27-7.11-3.27-4.87 0-7.21 3.28-2.35 3.28-2.35 9.47t2.35 9.43q2.34 3.25 7.21 3.25m53.59-31.92h7.43l-20.97 49.05q-.41.98-1.06 1.49-.66.5-2.01.5h-6.9l7.2-15.45-15.56-35.59h8.13q1.09 0 1.71.53t.92 1.2l8.17 19.95q.42 1.01.7 2.03.28 1.01.54 2.06.34-1.05.68-2.08.33-1.03.75-2.05l7.72-19.91q.3-.75 1-1.24.69-.49 1.55-.49m37.61 4.17-2.1 3.34q-.37.59-.78.84-.42.24-1.05.24-.68 0-1.45-.37-.77-.38-1.78-.85-1.01-.46-2.3-.84-1.3-.37-3.06-.37-2.74 0-4.29 1.16-1.56 1.16-1.56 3.03 0 1.24.81 2.09.8.84 2.13 1.48 1.33.63 3.02 1.14t3.43 1.11q1.75.6 3.43 1.37 1.69.76 3.02 1.95 1.33 1.18 2.14 2.83t.81 3.97q0 2.78-1 5.12-.99 2.35-2.94 4.05-1.95 1.71-4.82 2.66-2.87.96-6.62.96-1.99 0-3.88-.36-1.89-.35-3.64-.99-1.74-.64-3.22-1.5t-2.61-1.88l2.14-3.52q.41-.64.97-.98.57-.33 1.43-.33t1.63.49q.77.48 1.78 1.05 1.01.56 2.38 1.04 1.37.49 3.47.49 1.65 0 2.83-.39t1.95-1.03 1.13-1.48q.35-.85.35-1.75 0-1.35-.8-2.21-.81-.86-2.14-1.5t-3.04-1.14q-1.7-.51-3.48-1.11-1.79-.6-3.49-1.41-1.71-.8-3.04-2.04t-2.14-3.04q-.8-1.8-.8-4.35 0-2.36.93-4.5.94-2.14 2.76-3.73t4.54-2.55q2.72-.95 6.28-.95 3.97 0 7.24 1.31 3.26 1.31 5.43 3.45m55.39 7.35h7.54q2.77 0 4.84-.7 2.06-.69 3.43-1.98 1.37-1.3 2.04-3.15.68-1.86.68-4.15 0-2.17-.68-3.94-.67-1.76-2.02-3-1.35-1.23-3.42-1.89-2.06-.65-4.87-.65h-7.54zm-10.09-27.27h17.63q5.44 0 9.41 1.28 3.98 1.28 6.56 3.56 2.59 2.29 3.85 5.48 1.25 3.18 1.25 6.97 0 3.94-1.31 7.22t-3.94 5.65q-2.62 2.36-6.58 3.67-3.95 1.31-9.24 1.31h-7.54v19.09h-10.09zm73.13 27.04h18v21.94q-4.13 3.04-8.79 4.44-4.67 1.41-10 1.41-6.64 0-12.02-2.06t-9.18-5.74q-3.81-3.68-5.87-8.77-2.07-5.1-2.07-11.14 0-6.12 1.99-11.21 1.99-5.1 5.65-8.78 3.65-3.67 8.86-5.7 5.22-2.02 11.7-2.02 3.3 0 6.17.52 2.87.53 5.33 1.44 2.45.92 4.48 2.23 2.02 1.32 3.71 2.89l-2.89 4.58q-.67 1.09-1.76 1.33t-2.36-.55l-2.48-1.42q-1.23-.71-2.75-1.24-1.52-.52-3.41-.86-1.9-.34-4.37-.34-4.02 0-7.26 1.35t-5.53 3.87q-2.29 2.51-3.53 6.03-1.23 3.53-1.23 7.88 0 4.65 1.33 8.3 1.33 3.66 3.75 6.19t5.83 3.86q3.41 1.34 7.61 1.34 3 0 5.36-.64 2.37-.64 4.62-1.73v-9.82h-6.83q-.97 0-1.52-.55-.54-.54-.54-1.33z"/></svg>