<svg xmlns="http://www.w3.org/2000/svg" width="500" height="350" viewBox="0 0 500 350"><rect width="100%" height="100%" fill="#F8BBD0"/><path fill="#FFFFFF" d="M124.575 175.285h13.92v16.97q-3.19 2.35-6.8 3.44-3.61 1.08-7.73 1.08-5.13 0-9.29-1.59-4.17-1.6-7.11-4.44t-4.54-6.78q-1.59-3.95-1.59-8.62 0-4.72 1.53-8.67 1.54-3.94 4.37-6.78 2.83-2.85 6.86-4.41 4.03-1.57 9.05-1.57 2.55 0 4.77.41 2.21.4 4.11 1.11 1.9.72 3.47 1.73t2.87 2.23l-2.23 3.54q-.52.84-1.37 1.03-.84.19-1.82-.42l-1.92-1.1q-.95-.55-2.13-.96-1.17-.4-2.64-.67-1.46-.26-3.38-.26-3.1 0-5.61 1.05-2.51 1.04-4.27 2.98-1.77 1.95-2.73 4.67-.96 2.73-.96 6.09 0 3.6 1.03 6.43 1.03 2.82 2.9 4.78t4.51 2.99 5.89 1.03q2.32 0 4.15-.5 1.82-.49 3.56-1.33v-7.6h-5.28q-.75 0-1.17-.42t-.42-1.03zm20.56-8.72h7.19v29.75h-7.19zm8.18-8.68q0 .93-.38 1.74-.38.82-1 1.43-.62.6-1.46.97-.84.36-1.8.36-.93 0-1.76-.36-.82-.37-1.43-.97-.61-.61-.97-1.43-.37-.81-.37-1.74 0-.95.37-1.79.36-.84.97-1.45t1.43-.97q.83-.37 1.76-.37.96 0 1.8.37.84.36 1.46.97t1 1.45.38 1.79m12.64 10.47.44 3.37q1.39-2.67 3.3-4.19 1.92-1.53 4.53-1.53 2.06 0 3.3.9l-.46 5.37q-.15.52-.42.74-.28.22-.74.22-.44 0-1.29-.15-.86-.14-1.67-.14-1.19 0-2.12.34-.92.35-1.66 1-.74.66-1.31 1.58-.56.93-1.06 2.12v18.33h-7.16v-29.75h4.21q1.1 0 1.53.39.44.39.58 1.4m15.4-15.13h7.16v43.09h-7.16zm34.11 16.55-1.63 2.59q-.29.46-.61.65t-.81.19q-.52 0-1.12-.29-.59-.29-1.37-.66-.79-.36-1.79-.65t-2.36-.29q-2.12 0-3.32.9t-1.2 2.35q0 .96.62 1.61t1.65 1.14q1.03.5 2.34.89 1.3.39 2.65.85 1.35.47 2.65 1.06 1.31.6 2.34 1.51t1.65 2.19.62 3.07q0 2.15-.76 3.96-.77 1.82-2.28 3.14-1.51 1.31-3.73 2.05t-5.12.74q-1.53 0-3-.27-1.46-.28-2.81-.77t-2.49-1.16q-1.15-.67-2.02-1.45l1.65-2.73q.32-.49.76-.75.43-.26 1.1-.26t1.26.38q.6.37 1.38.81.78.43 1.84.81t2.68.38q1.28 0 2.19-.31.92-.3 1.51-.8.59-.49.87-1.14t.28-1.35q0-1.04-.63-1.71-.62-.67-1.65-1.16t-2.35-.88q-1.32-.4-2.7-.86-1.37-.46-2.69-1.09-1.32-.62-2.35-1.58t-1.66-2.35q-.62-1.39-.62-3.36 0-1.83.73-3.48.72-1.65 2.13-2.89 1.4-1.23 3.51-1.97 2.1-.74 4.85-.74 3.08 0 5.6 1.02 2.52 1.01 4.21 2.66m48.45-15.39h7.83v41.93h-7.83v-18.33h-19.69v18.33h-7.83v-41.93h7.83v18.03h19.69zm29.21 11.71q3.3 0 6.02 1.07 2.71 1.08 4.64 3.05 1.92 1.97 2.97 4.81 1.04 2.85 1.04 6.35 0 3.54-1.04 6.39-1.05 2.84-2.97 4.84-1.93 2-4.64 3.07-2.72 1.07-6.02 1.07-3.34 0-6.06-1.07-2.73-1.07-4.66-3.07t-2.98-4.84q-1.06-2.85-1.06-6.39 0-3.5 1.06-6.35 1.05-2.84 2.98-4.81t4.66-3.05q2.72-1.07 6.06-1.07m0 25.14q3.71 0 5.49-2.49 1.79-2.49 1.79-7.31 0-4.81-1.79-7.33-1.78-2.53-5.49-2.53-3.77 0-5.58 2.54-1.82 2.54-1.82 7.32 0 4.79 1.82 7.3 1.81 2.5 5.58 2.5m39.93-21.46-1.62 2.59q-.29.46-.61.65t-.81.19q-.53 0-1.12-.29-.6-.29-1.38-.66-.78-.36-1.78-.65t-2.37-.29q-2.11 0-3.32.9-1.2.9-1.2 2.35 0 .96.62 1.61.63.65 1.66 1.14 1.03.5 2.33.89 1.31.39 2.66.85 1.34.47 2.65 1.06 1.3.6 2.33 1.51t1.66 2.19q.62 1.28.62 3.07 0 2.15-.77 3.96-.77 1.82-2.28 3.14-1.5 1.31-3.72 2.05t-5.12.74q-1.54 0-3-.27-1.47-.28-2.81-.77-1.35-.49-2.5-1.16-1.14-.67-2.01-1.45l1.65-2.73q.32-.49.75-.75.44-.26 1.1-.26.67 0 1.27.38.59.37 1.37.81.79.43 1.85.81 1.05.38 2.68.38 1.27 0 2.19-.31.91-.3 1.51-.8.59-.49.87-1.14.27-.65.27-1.35 0-1.04-.62-1.71-.63-.67-1.66-1.16t-2.34-.88q-1.32-.4-2.7-.86t-2.7-1.09q-1.32-.62-2.35-1.58t-1.65-2.35-.62-3.36q0-1.83.72-3.48.73-1.65 2.13-2.89 1.41-1.23 3.51-1.97t4.86-.74q3.07 0 5.6 1.02 2.52 1.01 4.2 2.66m15.63 27q-3.88 0-5.96-2.19-2.07-2.19-2.07-6.04v-16.62h-3.05q-.58 0-.98-.38-.41-.37-.41-1.13v-2.84l4.79-.78 1.5-8.12q.15-.58.56-.9.4-.32 1.04-.32h3.71v9.37h7.95v5.1h-7.95v16.12q0 1.4.68 2.18t1.87.78q.67 0 1.12-.16t.78-.33q.34-.17.6-.33t.52-.16q.32 0 .52.16.21.16.44.47l2.14 3.48q-1.56 1.31-3.59 1.98-2.03.66-4.21.66m17.31-18.76h13.52q0-1.39-.39-2.62-.39-1.24-1.18-2.16-.78-.93-1.98-1.47-1.21-.54-2.8-.54-3.11 0-4.89 1.77t-2.28 5.02m18.27 4.32h-18.41q.17 2.29.81 3.96t1.68 2.76q1.05 1.08 2.48 1.62 1.44.54 3.18.54t3-.41 2.2-.9q.95-.49 1.66-.9.71-.4 1.37-.4.9 0 1.34.66l2.06 2.61q-1.19 1.39-2.67 2.34-1.48.94-3.09 1.51-1.61.56-3.28.79-1.66.23-3.23.23-3.1 0-5.77-1.02-2.67-1.03-4.64-3.05t-3.1-4.99-1.13-6.89q0-3.04.98-5.72.99-2.69 2.83-4.67 1.84-1.99 4.49-3.15 2.66-1.16 5.99-1.16 2.82 0 5.19.9 2.38.9 4.09 2.63 1.71 1.72 2.69 4.23.97 2.51.97 5.73 0 1.62-.35 2.19-.35.56-1.34.56m7.14-29.11h7.16v43.09h-7.16z"/></svg>